<?xml version="1.0" encoding="UTF-8"?>
<svg version="1.1" xmlns="http://www.w3.org/2000/svg" width="190" height="226">
<path d="M0 0 C62.7 0 125.4 0 190 0 C190 74.58 190 149.16 190 226 C127.3 226 64.6 226 0 226 C0 151.42 0 76.84 0 0 Z " fill="#010100" transform="translate(0,0)"/>
<path d="M0 0 C4.36045847 2.22136563 7.13277421 4.43567029 9 9 C9.73507024 13.98214275 9.56395517 16.75380225 6.625 20.875 C3.14879568 25.06956484 -0.75981316 28.85178571 -4.65234375 32.65625 C-7.30937955 35.30886477 -9.67580327 38.05601748 -12 41 C-10.76636719 41.32871094 -10.76636719 41.32871094 -9.5078125 41.6640625 C4.56062543 45.66040861 14.10159496 53.28059889 25.16113281 62.47705078 C27.54363911 64.45024174 29.95531838 66.38515107 32.375 68.3125 C33.13554687 68.9209375 33.89609375 69.529375 34.6796875 70.15625 C36.36670538 71.49677599 38.06031067 72.82902477 39.7578125 74.15625 C40.66273438 74.8678125 41.56765625 75.579375 42.5 76.3125 C43.3146875 76.94800781 44.129375 77.58351563 44.96875 78.23828125 C47.52586561 80.45608729 48.88341562 82.12426155 49.3359375 85.5234375 C49.44147157 93.22742475 49.44147157 93.22742475 47.25 97.0625 C43.26396675 100.49491752 39.77206297 101.70360941 34.54296875 101.55859375 C26.27292856 99.7419797 19.48556942 91.73767651 13.19287109 86.36791992 C-1.19276085 73.32628255 -1.19276085 73.32628255 -19 67 C-19.7425 66.90332031 -20.485 66.80664062 -21.25 66.70703125 C-28.35578652 66.23754178 -36.04207436 67.87363854 -41.69189453 72.33642578 C-45.73459724 75.96555277 -49.3959872 79.94096119 -53 84 C-53.96679688 85.07507813 -53.96679688 85.07507813 -54.953125 86.171875 C-56.02605305 87.39063793 -57.08862927 88.61859258 -58.140625 89.85546875 C-60.63556328 92.73303412 -63.22371837 95.51944732 -65.8125 98.3125 C-66.32554688 98.8681665 -66.83859375 99.42383301 -67.3671875 99.99633789 C-69.86324834 102.69896658 -72.36759054 105.39284196 -74.890625 108.0703125 C-75.77234375 109.01648438 -76.6540625 109.96265625 -77.5625 110.9375 C-78.34753906 111.77152344 -79.13257813 112.60554688 -79.94140625 113.46484375 C-85.8754228 120.7725795 -85.83258144 128.02554653 -85 137 C-82.28338995 148.13810122 -70.08263319 156.9294732 -62.01074219 164.38574219 C-57.82780475 168.2676967 -53.76759429 172.2287108 -49.8046875 176.3359375 C-48.93175049 177.23521973 -48.05881348 178.13450195 -47.15942383 179.06103516 C-45.46913717 180.8112295 -43.79114415 182.57340864 -42.12768555 184.34912109 C-36.04778142 190.61849462 -30.42466404 194.11327607 -21.75 195.53125 C-11.70267875 195.41707589 -5.06174025 193.38519565 2.125 186.1875 C2.95257813 185.30449219 3.78015625 184.42148438 4.6328125 183.51171875 C6.67145901 181.34860043 8.73370691 179.41588231 11 177.5 C15.15759931 173.95928026 18.91975143 170.07070433 22.703125 166.13671875 C26.21961525 162.86542595 27.97066293 162 32.8125 162 C37.66935227 162.73671355 40.75219291 165.45094703 44 169 C45.53597454 172.07194908 45.2265038 174.60244293 45 178 C43.0326235 182.78855856 40.25333481 186.20169683 36.625 189.80859375 C36.10043213 190.33840347 35.57586426 190.8682132 35.03540039 191.41407776 C33.92630021 192.52957297 32.81334606 193.64124814 31.69677734 194.74926758 C30.02032015 196.41728218 28.36327044 198.10295415 26.70703125 199.79101562 C18.66556286 207.88660655 10.3699726 214.60644924 -0.375 218.875 C-1.33148438 219.26429688 -2.28796875 219.65359375 -3.2734375 220.0546875 C-16.340178 224.58499008 -30.43733543 222.41290715 -42.6875 216.75 C-50.40799653 212.96633137 -55.93989683 207.74060185 -61.71875 201.46484375 C-63.88946938 199.11184023 -66.1233049 196.97183103 -68.55859375 194.89453125 C-74.20860469 190.03882072 -79.47169985 184.78827052 -84.75463867 179.54052734 C-85.95721126 178.34948516 -87.16423984 177.16292489 -88.37573242 175.98095703 C-101.03970552 163.62410373 -111.77791802 150.23968359 -112.48999023 131.80419922 C-112.58007136 113.31779477 -104.52353411 100.72464196 -92 88 C-90.21317962 86.20281122 -88.41851895 84.41530906 -86.609375 82.640625 C-84.20255376 80.18706937 -81.9925772 77.5717414 -79.75 74.96875 C-77.5207971 72.46089674 -75.1429125 70.13143192 -72.75 67.78125 C-70.91757513 65.91610326 -69.20646865 63.98072254 -67.5 62 C-64.71760668 58.77043633 -61.78980571 55.76677347 -58.75 52.78125 C-56.91757513 50.91610326 -55.20646865 48.98072254 -53.5 47 C-51.2544206 44.39352391 -48.95448488 41.91065479 -46.5 39.5 C-44.06610268 37.10946833 -41.78644441 34.64953738 -39.5625 32.0625 C-37.14382221 29.25423653 -34.64100317 26.60029407 -32 24 C-27.37276789 19.43505755 -23.16885965 14.55111078 -18.9609375 9.6015625 C-18.27257812 8.80492187 -17.58421875 8.00828125 -16.875 7.1875 C-16.25367187 6.45917969 -15.63234375 5.73085937 -14.9921875 4.98046875 C-10.55284172 0.56723677 -6.2425166 -1.10162058 0 0 Z " fill="#FCFCFB" transform="translate(113,1)"/>
<path d="M0 0 C37.62 0 75.24 0 114 0 C113.67 0.66 113.34 1.32 113 2 C111.2675 1.814375 111.2675 1.814375 109.5 1.625 C103.98067352 1.64446852 100.8851916 4.32054156 97 8 C95.26533621 9.82574399 93.63117236 11.70402505 92.01171875 13.6328125 C89.60111585 16.46936659 87.09131652 19.20689407 84.5625 21.9375 C84.05734863 22.48365967 83.55219727 23.02981934 83.03173828 23.5925293 C78.07333395 28.94103113 73.07187539 34.24895346 68.0690918 39.5559082 C61.92971435 46.06900593 55.8200464 52.60937976 49.71777344 59.15722656 C47.39737055 61.64648196 45.07534684 64.13422216 42.75317383 66.62182617 C41.58878648 67.86923348 40.42455997 69.11679095 39.26049805 70.36450195 C35.67580707 74.20657082 32.08651186 78.04427766 28.49438477 81.87939453 C26.72374033 83.77372809 24.95903295 85.67343976 23.1953125 87.57421875 C21.27442952 89.64334255 19.33610348 91.6826117 17.3671875 93.70703125 C3.48632993 108.27016826 1.6295724 121.92297871 2 141 C1.34 141 0.68 141 0 141 C0 94.47 0 47.94 0 0 Z " fill="#010101" transform="translate(0,0)"/>
<path d="M0 0 C0.86770523 -0.01004562 1.73541046 -0.02009125 2.62940979 -0.03044128 C3.58369873 -0.03627228 4.53798767 -0.04210327 5.52119446 -0.04811096 C6.5246138 -0.05789474 7.52803314 -0.06767853 8.56185913 -0.07775879 C11.89374965 -0.10775492 15.22559986 -0.12911119 18.55757141 -0.14796448 C20.26279433 -0.15782222 20.26279433 -0.15782222 22.0024662 -0.1678791 C28.02106609 -0.20049291 34.03964812 -0.22493756 40.05830383 -0.24440002 C45.04131327 -0.26221014 50.02375652 -0.29702378 55.00654602 -0.34693909 C61.01949684 -0.4071084 67.03192274 -0.43787191 73.04516029 -0.44757271 C75.3365012 -0.45613508 77.62782781 -0.47497223 79.91899681 -0.50431633 C83.12946569 -0.54321656 86.33788969 -0.54426658 89.54853821 -0.53639221 C90.96478989 -0.56639313 90.96478989 -0.56639313 92.40965271 -0.59700012 C98.27116391 -0.53256805 101.35293046 0.57580113 105.59190083 4.67732143 C108.09908552 7.61381424 108.19794763 10.25181532 108.13569641 14.06297302 C107.67205565 17.56966442 106.16552021 19.54988705 103.85835266 22.16062927 C98.62636254 25.54558706 94.13053485 25.59471912 88.1085968 25.56468201 C87.14360764 25.57154526 86.17861847 25.57840851 85.18438721 25.58547974 C82.00394351 25.60373655 78.82399362 25.59991174 75.64350891 25.59422302 C73.42682739 25.59878533 71.21014729 25.60409105 68.99346924 25.61010742 C64.350797 25.61903633 59.70829681 25.61661778 55.06562805 25.60667419 C49.12270867 25.59518469 43.18038348 25.61539732 37.23754215 25.64459133 C32.66067751 25.66295697 28.08395516 25.6626601 23.50706291 25.65695381 C21.31625472 25.65680064 19.12543685 25.66284119 16.93466377 25.67524529 C13.86856675 25.69015998 10.80356629 25.67947406 7.73750305 25.66233826 C6.8370224 25.67200623 5.93654175 25.68167419 5.0087738 25.69163513 C-0.86637569 25.62304624 -4.31327598 24.55795139 -9.14164734 21.16062927 C-12.10818782 17.06828257 -11.91141919 12.00028399 -11.14164734 7.16062927 C-8.52528737 2.3072329 -5.44341009 0.0494742 0 0 Z " fill="#B2B2B2" transform="translate(81.14164733886719,119.83937072753906)"/>
<path d="M0 0 C3.2607935 2.14262868 6.23692953 4.47385906 8 8 C8.41135993 13.34767903 7.68025629 16.39330951 5 21 C3.25021034 23.03708152 1.52168574 24.92311451 -0.375 26.80859375 C-0.89956787 27.33840347 -1.42413574 27.8682132 -1.96459961 28.41407776 C-3.07369979 29.52957297 -4.18665394 30.64124814 -5.30322266 31.74926758 C-6.97967985 33.41728218 -8.63672956 35.10295415 -10.29296875 36.79101562 C-18.33443714 44.88660655 -26.6300274 51.60644924 -37.375 55.875 C-38.33148438 56.26429688 -39.28796875 56.65359375 -40.2734375 57.0546875 C-52.80382138 61.39903263 -66.56038554 59.72368214 -78.27368164 54.09570312 C-87.7952 49.4096 -87.7952 49.4096 -89 47 C-88.18015625 46.91363281 -87.3603125 46.82726562 -86.515625 46.73828125 C-80.02093474 45.95003153 -80.02093474 45.95003153 -74.25 43.125 C-72.27232762 38.18081905 -72.69828767 33.25482309 -73 28 C-72.34515625 28.28875 -71.6903125 28.5775 -71.015625 28.875 C-62.22764519 32.44977145 -54.04153457 33.63747615 -44.875 30.625 C-39.69875088 28.29402884 -36.20907466 24.61092857 -32.3671875 20.51171875 C-30.32854099 18.34860043 -28.26629309 16.41588231 -26 14.5 C-21.84240069 10.95928026 -18.08024857 7.07070433 -14.296875 3.13671875 C-9.81382769 -1.03373512 -5.92315478 -1.92667674 0 0 Z " fill="#FA9E16" transform="translate(150,164)"/>
<path d="M0 0 C10.27340663 2.92292602 18.09495471 8.65142297 26.13769531 15.43652344 C28.78767885 17.66128675 31.48085576 19.83130391 34.171875 22.00610352 C36.21065511 23.65566632 38.24258741 25.31334578 40.2734375 26.97265625 C42.55555381 28.83334252 44.84780385 30.67809138 47.1640625 32.49609375 C48.50597656 33.54990234 48.50597656 33.54990234 49.875 34.625 C50.63554687 35.21539062 51.39609375 35.80578125 52.1796875 36.4140625 C54.64364487 38.56077214 55.90083137 40.25508212 56.3359375 43.5234375 C56.44147157 51.22742475 56.44147157 51.22742475 54.25 55.0625 C50.26396675 58.49491752 46.77206297 59.70360941 41.54296875 59.55859375 C33.27292856 57.7419797 26.48556942 49.73767651 20.19287109 44.36791992 C5.80928603 31.31933748 5.80928603 31.31933748 -12 25 C-12.75410156 24.91492188 -13.50820312 24.82984375 -14.28515625 24.7421875 C-20.47544781 24.41465885 -26.14089748 26.16013229 -32 28 C-28.5906287 23.19191227 -25.02977029 18.88557259 -20.79296875 14.7890625 C-18.8899865 12.89022618 -17.131519 10.90966626 -15.375 8.875 C-14.79492188 8.21242188 -14.21484375 7.54984375 -13.6171875 6.8671875 C-12.22596983 5.26090236 -10.86039389 3.63247267 -9.5 2 C-6.12670818 -0.69863346 -4.25796383 -0.30572269 0 0 Z " fill="#FC9F16" transform="translate(106,43)"/>
</svg>
