<?xml version="1.0" encoding="UTF-8"?>
<svg version="1.1" xmlns="http://www.w3.org/2000/svg" width="604" height="579">
<path d="M0 0 C199.32 0 398.64 0 604 0 C604 191.07 604 382.14 604 579 C404.68 579 205.36 579 0 579 C0 387.93 0 196.86 0 0 Z " fill="#000000" transform="translate(0,0)"/>
<path d="M0 0 C25.89281759 3.80465891 50.63003556 13.69231035 67.78125 34.2265625 C69.86482448 35.8700973 69.86482448 35.8700973 73.00390625 35.421875 C77.29584182 34.4573951 81.52816556 33.36539367 85.765625 32.1875 C100.44238941 28.21987849 115.09877898 25.440651 130.33984375 25.359375 C131.22238327 25.35236069 132.10492279 25.34534637 133.01420593 25.33811951 C135.84806471 25.32070331 138.68171466 25.31426696 141.515625 25.3125 C142.96633392 25.31148788 142.96633392 25.31148788 144.4463501 25.31045532 C158.43636757 25.32598914 172.09829059 25.61606542 185.828125 28.5625 C186.75786133 28.76069336 187.68759766 28.95888672 188.64550781 29.16308594 C196.82204771 30.9472064 204.90534236 32.84921828 212.828125 35.5625 C215.37139608 36.22935938 215.37139608 36.22935938 217.828125 35.5625 C218.99149548 34.22804563 220.14003056 32.87753936 221.20703125 31.46484375 C236.26338905 13.79629857 262.43728485 2.28564553 285.30078125 0.25390625 C294.94320648 -0.0923397 294.94320648 -0.0923397 298.953125 2.875 C305.55081454 13.81054054 306.09413489 25.72279936 306.140625 38.125 C306.14357574 38.81413483 306.14652649 39.50326965 306.14956665 40.21328735 C306.1646863 55.77411783 303.61966355 70.26852079 299.24609375 85.1875 C298.63619653 88.65308419 298.95719153 91.3145517 300.9921875 94.23046875 C301.71535156 94.98263672 301.71535156 94.98263672 302.453125 95.75 C324.486531 120.2955283 331.87719002 151.36427351 330.828125 183.5625 C330.51107921 187.70221214 329.82169855 191.53618625 328.828125 195.5625 C328.67746582 196.24022461 328.52680664 196.91794922 328.37158203 197.61621094 C321.51953217 228.38132243 304.43225072 252.95894057 277.890625 270.16015625 C253.53491874 285.36168761 226.85976829 292.72604579 198.828125 297.5625 C197.77069092 297.74570801 196.71325684 297.92891602 195.6237793 298.11767578 C191.96393216 298.70000409 188.52907552 298.62630949 184.828125 298.5625 C184.828125 299.2225 184.828125 299.8825 184.828125 300.5625 C185.51648438 300.78550781 186.20484375 301.00851562 186.9140625 301.23828125 C206.06552288 309.94115668 217.45237934 332.10750191 224.828125 350.5625 C228.5919266 360.95328813 230.95078901 371.11160538 230.95751953 382.22607422 C230.96014801 383.32247475 230.96014801 383.32247475 230.96282959 384.44102478 C230.9671961 386.83310386 230.96433044 389.2251078 230.9609375 391.6171875 C230.9616116 393.28630589 230.96258251 394.95542418 230.96383667 396.62454224 C230.96530621 400.10940493 230.96318141 403.59424188 230.95849609 407.07910156 C230.95277259 411.55498719 230.95609898 416.03081321 230.96206856 420.5066967 C230.96567163 423.94664973 230.96453722 427.38658846 230.96194077 430.8265419 C230.96127216 432.47803886 230.9620976 434.1295371 230.96442032 435.78103256 C230.96694554 438.07915475 230.96310937 440.37717819 230.95751953 442.67529297 C230.95632614 444.63884232 230.95632614 444.63884232 230.95510864 446.64205933 C230.828125 449.5625 230.828125 449.5625 229.828125 450.5625 C228.45602836 450.69970966 227.07977091 450.79549075 225.703125 450.875 C221.05094078 451.30401987 216.5957622 452.21183952 212.078125 453.375 C210.84578125 453.69082031 209.6134375 454.00664063 208.34375 454.33203125 C204.78561132 455.4118675 204.78561132 455.4118675 201.8828125 457.5390625 C198.25226205 459.94395397 194.86984048 460.99588093 190.703125 462.125 C190.01992188 462.32029297 189.33671875 462.51558594 188.6328125 462.71679688 C187.20830917 463.11874772 185.77972866 463.50650283 184.34761047 463.88041687 C182.71227017 464.3231414 181.08605966 464.80170233 179.47355652 465.32148743 C169.4719744 468.29092261 159.47312658 468.07340805 149.13671875 468.1015625 C147.13997734 468.11376819 145.14323763 468.12625495 143.14649963 468.13900757 C138.98019314 468.16136882 134.81406815 468.17102602 130.64770508 468.17333984 C125.33269363 468.17863368 120.01920507 468.23008196 114.70460415 468.29285622 C110.58736821 468.33387542 106.47049689 468.34298314 102.35307503 468.34345627 C100.39438448 468.34880883 98.43568799 468.36553408 96.47720146 468.39430618 C84.50802086 468.55559643 77.71576098 467.93216053 67.828125 460.5625 C63.868125 459.2425 59.908125 457.9225 55.828125 456.5625 C55.828125 438.4125 55.828125 420.2625 55.828125 401.5625 C39.95833597 401.72005369 39.95833597 401.72005369 24.08911133 401.92285156 C6.20373651 402.07585218 -7.98756348 400.05932346 -21.796875 387.6875 C-30.60140884 378.37143515 -34.52658945 365.92140229 -38.5300293 354.0090332 C-43.50993528 339.4209042 -49.99646074 325.79431719 -62.609375 316.375 C-67.79003906 312.43769531 -67.79003906 312.43769531 -68.484375 308.75 C-68.171875 305.5625 -68.171875 305.5625 -66.91015625 303.890625 C-64.18887339 301.81144259 -61.95039244 302.09002513 -58.625 302.21875 C-40.31695623 304.78420836 -26.17069976 322.17777633 -15.171875 335.5625 C-7.31035431 344.94511953 -0.86191166 350.67424664 11.78710938 351.83374023 C14.93152573 351.93014923 18.05765762 351.92562372 21.203125 351.875 C22.34692627 351.86662109 23.49072754 351.85824219 24.66918945 351.84960938 C38.087903 351.66801774 51.45751318 350.66149444 64.828125 349.5625 C65.02039673 348.19303223 65.02039673 348.19303223 65.21655273 346.79589844 C65.74071923 344.02461659 66.26526675 342.2446009 67.61328125 339.828125 C67.97526611 339.17626221 68.33725098 338.52439941 68.71020508 337.8527832 C69.09974365 337.17948975 69.48928223 336.50619629 69.890625 335.8125 C70.29112061 335.11020264 70.69161621 334.40790527 71.10424805 333.68432617 C74.50203057 327.85716595 78.42168648 322.66717503 82.828125 317.5625 C83.42753906 316.75683594 84.02695313 315.95117188 84.64453125 315.12109375 C87.28618212 312.02577832 90.20347143 309.73523279 93.453125 307.3125 C94.03835938 306.86648438 94.62359375 306.42046875 95.2265625 305.9609375 C99.49958147 302.72677176 99.49958147 302.72677176 101.828125 301.5625 C100.84231445 301.38187012 99.85650391 301.20124023 98.84082031 301.01513672 C73.81782432 296.40504689 50.02994711 291.35844988 26.828125 280.5625 C26.09996582 280.22379883 25.37180664 279.88509766 24.62158203 279.53613281 C-4.33701834 265.77867457 -28.09782299 242.21205112 -38.984375 211.75 C-49.25536258 181.41024958 -47.07054855 150.40776296 -33.171875 121.5625 C-21.75761826 99.36754873 -21.75761826 99.36754873 -13.3515625 93.234375 C-11.59968764 90.75158546 -12.24020388 88.6145968 -12.72314453 85.74316406 C-13.43490934 82.28425044 -14.24497586 78.86114375 -15.109375 75.4375 C-20.02820223 54.83046023 -23.59612006 29.65312861 -15.171875 9.5625 C-14.79417969 8.60859375 -14.41648438 7.6546875 -14.02734375 6.671875 C-10.7314452 0.17965187 -7.01067957 -0.51219577 0 0 Z " fill="#FEFEFE" transform="translate(164.171875,109.4375)"/>
<path d="M0 0 C78.54 0 157.08 0 238 0 C238 191.07 238 382.14 238 579 C38.68 579 -160.64 579 -366 579 C-366 491.88 -366 404.76 -366 315 C-362.62398264 319.50135648 -362.62398264 319.50135648 -362.48828125 323.2734375 C-362.45275146 324.09231445 -362.41722168 324.91119141 -362.38061523 325.75488281 C-362.34689819 327.05184082 -362.34689819 327.05184082 -362.3125 328.375 C-362.26234741 329.70289551 -362.26234741 329.70289551 -362.21118164 331.05761719 C-361.95659771 338.37111934 -361.89096808 345.68274658 -362 353 C-361.01 353.33 -360.02 353.66 -359 354 C-358.89042969 353.38511719 -358.78085937 352.77023437 -358.66796875 352.13671875 C-358.50941406 351.32847656 -358.35085938 350.52023437 -358.1875 349.6875 C-358.03667969 348.88699219 -357.88585937 348.08648437 -357.73046875 347.26171875 C-356.89985265 344.68991809 -356.1988268 343.56474651 -354 342 C-352.02734375 341.85546875 -352.02734375 341.85546875 -349.9375 342.1875 C-349.24527344 342.28417969 -348.55304688 342.38085938 -347.83984375 342.48046875 C-346 343 -346 343 -344 345 C-342.97470399 348.02165424 -342.86076873 350.86585597 -342.82641602 354.04052734 C-342.81292618 355.04191742 -342.79943634 356.0433075 -342.78553772 357.07504272 C-342.77509933 358.151138 -342.76466095 359.22723328 -342.75390625 360.3359375 C-342.72097066 362.61979554 -342.68775897 364.90364961 -342.65429688 367.1875 C-342.60688199 370.78415223 -342.56243685 374.38078803 -342.52319336 377.97753906 C-342.4834261 381.45134034 -342.43189657 384.92481627 -342.37890625 388.3984375 C-342.3704921 389.47048431 -342.36207794 390.54253113 -342.35340881 391.64706421 C-342.23554855 398.78365497 -341.74576335 404.34951826 -336.9375 409.9375 C-333.96454236 413.69167279 -333.19790847 416.25019676 -333 421 C-332.34 421 -331.68 421 -331 421 C-330.67 422.65 -330.34 424.3 -330 426 C-329.34 426 -328.68 426 -328 426 C-327.505 427.485 -327.505 427.485 -327 429 C-326.34 429.33 -325.68 429.66 -325 430 C-324.1484375 432.28515625 -324.1484375 432.28515625 -323.375 435.0625 C-323.11460937 435.98160156 -322.85421875 436.90070313 -322.5859375 437.84765625 C-322.29589844 438.91306641 -322.29589844 438.91306641 -322 440 C-321.34 440 -320.68 440 -320 440 C-319.505 441.485 -319.505 441.485 -319 443 C-317.741875 443.0825 -316.48375 443.165 -315.1875 443.25 C-312.47373115 443.42795206 -311.35016247 443.67531884 -309.3359375 445.54296875 C-307.51036535 448.90052688 -307.00498186 452.33189442 -306.4375 456.0625 C-305.58070631 461.81608997 -305.58070631 461.81608997 -303 467 C-302.195625 467.144375 -301.39125 467.28875 -300.5625 467.4375 C-298 468 -298 468 -296.3125 469.75 C-294.9400824 472.10271589 -294.01035855 474.47410363 -293 477 C-292.46375 477.70125 -291.9275 478.4025 -291.375 479.125 C-290 481 -290 481 -290 484 C-289.01 484 -288.02 484 -287 484 C-286.9175 484.61875 -286.835 485.2375 -286.75 485.875 C-286.21964484 488.16150356 -286.21964484 488.16150356 -284.125 488.9375 C-282 490 -282 490 -280.6875 492.25 C-279.0995699 494.83773794 -277.85919849 496.1040021 -275.5625 498 C-270.61109784 502.09483047 -267.75255122 505.72002481 -266 512 C-265.34 512 -264.68 512 -264 512 C-264 512.99 -264 513.98 -264 515 C-263.34 515 -262.68 515 -262 515 C-261.67 514.01 -261.34 513.02 -261 512 C-258.04335481 510.5216774 -255.25770263 510.93967217 -252 511 C-249.6650083 514.64842453 -249.92085961 517.76104306 -250 522 C-249.25314941 521.99476318 -248.50629883 521.98952637 -247.73681641 521.98413086 C-244.36621943 521.96339599 -240.99563586 521.95035101 -237.625 521.9375 C-236.449375 521.92912109 -235.27375 521.92074219 -234.0625 521.91210938 C-232.94101563 521.90888672 -231.81953125 521.90566406 -230.6640625 521.90234375 C-229.62717285 521.89710693 -228.5902832 521.89187012 -227.52197266 521.88647461 C-225 522 -225 522 -223 523 C-221.71682108 526.84953676 -221.93356363 529.94738135 -222 534 C-221.01 534.33 -220.02 534.66 -219 535 C-218.12109375 536.8125 -218.12109375 536.8125 -217.4375 539 C-216.79318716 541.14541038 -216.79318716 541.14541038 -216 543 C-215.34 543.33 -214.68 543.66 -214 544 C-214 544.66 -214 545.32 -214 546 C-213.01 546.33 -212.02 546.66 -211 547 C-210.3125 549.0625 -210.3125 549.0625 -210 551 C-209.28457031 551.15855469 -208.56914062 551.31710937 -207.83203125 551.48046875 C-202.19506103 552.80038028 -196.95876466 554.36159433 -191.625 556.625 C-186.03520689 558.84118856 -181.29235423 559.46984016 -175.3203125 559.6875 C-169.3665601 560.0059771 -163.5006029 561.09519525 -157.625 562.0625 C-156.48772461 562.24949463 -155.35044922 562.43648926 -154.17871094 562.62915039 C-151.45164812 563.08137375 -148.72543073 563.53805715 -146 564 C-146 564.66 -146 565.32 -146 566 C-145.01 566.0825 -144.02 566.165 -143 566.25 C-137.83919181 566.99764223 -133.40870909 569.29759443 -129.17218399 572.29184723 C-124.02022987 575.92296529 -120.15532208 576.71804131 -113.92871094 576.61523438 C-113.05924332 576.62078339 -112.1897757 576.6263324 -111.29396057 576.63204956 C-108.44019166 576.6437899 -105.58803124 576.61962007 -102.734375 576.59375 C-100.7343147 576.59203668 -98.73425215 576.59210682 -96.73419189 576.59387207 C-92.54799829 576.59222176 -88.36234204 576.57358292 -84.17626953 576.54199219 C-78.83927028 576.50241902 -73.50297727 576.49793713 -68.16585922 576.50545502 C-64.03570208 576.508542 -59.90570041 576.49634137 -55.77558136 576.47932434 C-53.80942004 576.47234451 -51.84324109 576.46916364 -49.87706757 576.47001648 C-39.50445293 576.4631817 -29.96029529 576.26244054 -20 573 C-18.27149421 572.49772011 -16.5424128 571.99741236 -14.8125 571.5 C-13.20719305 571.00367321 -11.60300079 570.50372529 -10 570 C-9.18144531 569.7525 -8.36289062 569.505 -7.51953125 569.25 C-3.38154584 567.95392627 -0.45176711 566.64969674 3 564 C6.3203125 562.8671875 6.3203125 562.8671875 10.125 561.875 C10.78717529 561.70105713 11.44935059 561.52711426 12.1315918 561.34790039 C16.80948106 560.1672227 21.32852054 559.50823308 26.14453125 559.37109375 C28.41432038 559.14455178 28.41432038 559.14455178 30 556 C30.99 556 31.98 556 33 556 C33.33 555.01 33.66 554.02 34 553 C37.04807938 550.5234355 39.35308659 549.90187447 43.16015625 549.76171875 C48.67607812 549.21426043 52.11118892 546.72845459 56.4375 543.4375 C57.82935436 542.41172241 59.22376212 541.38939751 60.62109375 540.37109375 C61.2236499 539.91661865 61.82620605 539.46214355 62.44702148 538.99389648 C64 538 64 538 66 538 C66 537.34 66 536.68 66 536 C67.46373047 535.16855469 67.46373047 535.16855469 68.95703125 534.3203125 C70.24222019 533.58859909 71.52737464 532.85682508 72.8125 532.125 C73.45509766 531.76019531 74.09769531 531.39539063 74.75976562 531.01953125 C77.56768798 529.41916099 80.30964298 527.79357134 83 526 C83.99 526 84.98 526 86 526 C86 525.34 86 524.68 86 524 C91.64958806 520.77518067 97.05296364 517.96345419 103.25 515.9375 C105.88068876 515.26635086 105.88068876 515.26635086 107 514 C108.51928038 513.92820036 110.04167482 513.91607993 111.5625 513.9375 C112.38878906 513.94652344 113.21507812 513.95554687 114.06640625 513.96484375 C114.70449219 513.97644531 115.34257812 513.98804688 116 514 C116.0825 513.41347656 116.165 512.82695313 116.25 512.22265625 C117.22250048 509.34061055 118.63987616 508.32138457 121 506.4375 C124.31662334 503.82937402 124.31662334 503.82937402 126 500 C127.70703125 498.24609375 127.70703125 498.24609375 129.8125 496.4375 C130.84310547 495.53837891 130.84310547 495.53837891 131.89453125 494.62109375 C134 493 134 493 136.19921875 491.97265625 C138.35585645 491.07313533 138.35585645 491.07313533 139 488 C140.48249278 486.71087585 141.9694238 485.42500311 143.5078125 484.203125 C145.09520811 482.96699557 145.09520811 482.96699557 146.75 481.25 C148 480 148 480 150 479 C151.10250307 476.25936485 151.9872494 473.47232774 152.90234375 470.6640625 C153.98966737 468.02507776 154.94111442 466.88731178 157 465 C157.7050653 463.42199672 158.4016651 461.83934885 159.04296875 460.234375 C160.72207066 456.31418605 162.74037125 452.5578378 164.6953125 448.76953125 C165.77947126 446.46812836 166.51439214 444.48133771 167 442 C167.66 442 168.32 442 169 442 C169.28875 441.13375 169.5775 440.2675 169.875 439.375 C170.91666667 436.25 171.95833333 433.125 173 430 C173.66 430 174.32 430 175 430 C175 428.68 175 427.36 175 426 C175.66 426 176.32 426 177 426 C177.33 424.02 177.66 422.04 178 420 C178.66 420 179.32 420 180 420 C180.309375 418.88625 180.61875 417.7725 180.9375 416.625 C182 413 182 413 183 411 C183.66 411 184.32 411 185 411 C185.33 410.01 185.66 409.02 186 408 C189.66305234 407.25073929 192.42355152 406.7619986 196 408 C196 407.34 196 406.68 196 406 C196.99 405.34 197.98 404.68 199 404 C200.04600873 402.26780954 201.01795087 400.49001143 201.9375 398.6875 C203.54815892 395.61767978 204.99463285 393.00659392 207.1875 390.3125 C209.29565085 387.62279029 210.17146703 385.07407384 211.2734375 381.87109375 C212.15998809 379.58798765 213.39187936 377.83785216 215 376 C214.34 376 213.68 376 213 376 C212.78596682 368.30669613 213.00809294 361.42661645 215 354 C215.48506578 351.91803226 215.96373449 349.83456823 216.4375 347.75 C216.82035156 346.09677734 216.82035156 346.09677734 217.2109375 344.41015625 C217.73926722 342.1268303 218.26528967 339.84296931 218.7890625 337.55859375 C219.17191406 335.88990234 219.17191406 335.88990234 219.5625 334.1875 C219.81 333.10597656 220.0575 332.02445312 220.3125 330.91015625 C220.85106867 328.63041955 221.43859819 326.38176983 222.0625 324.125 C223.39905007 318.94586849 223.89192333 313.59299539 224.53515625 308.29296875 C225 305 225 305 226 302 C224.741875 302.0825 223.48375 302.165 222.1875 302.25 C218.30589749 302.2224709 218.30589749 302.2224709 215.9375 300.5 C213.53167855 294.08447613 216.83569256 287.26748446 219.4375 281.375 C220.63953594 278.58925072 221.82480035 275.79715781 223 273 C223.46535156 271.91976563 223.93070313 270.83953125 224.41015625 269.7265625 C224.60480469 268.82679688 224.79945313 267.92703125 225 267 C224.52554443 266.4536792 224.05108887 265.9073584 223.56225586 265.34448242 C221.31115536 261.96624862 221.57828613 258.68611401 221.59375 254.76171875 C221.58291382 253.96272659 221.57207764 253.16373444 221.56091309 252.3405304 C221.52669383 249.78943804 221.51107478 247.23879145 221.5 244.6875 C221.48536402 241.33681507 221.45152647 237.9871145 221.40625 234.63671875 C221.40927124 233.87606613 221.41229248 233.11541351 221.41540527 232.33171082 C221.34306351 227.12789541 220.16836788 223.71552373 218 219 C217.56762695 216.36938477 217.56762695 216.36938477 217.48828125 213.94140625 C217.45283203 213.06162109 217.41738281 212.18183594 217.38085938 211.27539062 C217.34702148 209.93250977 217.34702148 209.93250977 217.3125 208.5625 C217.26125977 207.17901367 217.26125977 207.17901367 217.20898438 205.76757812 C217.12717006 203.51184049 217.05780878 201.25645881 217 199 C216.36392822 198.7102832 215.72785645 198.42056641 215.07250977 198.12207031 C212.43328777 196.6931783 212.02143758 195.50911384 210.9375 192.75 C209.8458543 190.04237483 208.79644293 187.65319906 207.3125 185.125 C205.98332012 181.96028599 205.76166763 179.82787617 205.5625 176.4375 C205.25854348 171.78316581 204.5761432 169.25103927 201 166 C200.34 165.67 199.68 165.34 199 165 C199 162.36 199 159.72 199 157 C198.24976563 156.98066406 197.49953125 156.96132812 196.7265625 156.94140625 C194 156 194 156 192.0859375 152.90234375 C191.49600259 151.58937069 190.92659544 150.26703523 190.375 148.9375 C190.07142578 148.25010742 189.76785156 147.56271484 189.45507812 146.85449219 C188.00210557 143.52778387 186.66771751 140.18827933 185.5 136.75 C183.9427603 132.3021341 181.30107164 128.52640461 178.71875 124.61328125 C174.12319078 117.62594235 174.12319078 117.62594235 173.56640625 114.796875 C173.16679379 112.81723 173.16679379 112.81723 171.15234375 111.953125 C170.42144531 111.72109375 169.69054687 111.4890625 168.9375 111.25 C168.20402344 111.00765625 167.47054687 110.7653125 166.71484375 110.515625 C166.14894531 110.34546875 165.58304688 110.1753125 165 110 C165 109.34 165 108.68 165 108 C164.34 108 163.68 108 163 108 C162.77957031 107.14728516 162.77957031 107.14728516 162.5546875 106.27734375 C161.0027955 100.93491094 159.08925787 97.40573255 155.20703125 93.41015625 C154 92 154 92 154 90 C153.34 90 152.68 90 152 90 C152 89.34 152 88.68 152 88 C151.01 87.67 150.02 87.34 149 87 C149 86.34 149 85.68 149 85 C147.7625 85.103125 146.525 85.20625 145.25 85.3125 C142.02198266 85.28398395 141.25639707 85.20241874 138.625 83.125 C136.42512394 78.89446912 135.691899 74.68852614 135 70 C134.45214844 69.89300781 133.90429688 69.78601563 133.33984375 69.67578125 C126.93425394 67.82575281 119.70538619 63.70538619 115 59 C115 58.01 115 57.02 115 56 C113.68 55.34 112.36 54.68 111 54 C111 53.34 111 52.68 111 52 C110.34 52 109.68 52 109 52 C109 50.68 109 49.36 109 48 C108.0925 48.226875 107.185 48.45375 106.25 48.6875 C103 49 103 49 100.6875 47.75 C99 46 99 46 98 43 C97.01 42.67 96.02 42.34 95 42 C94.566875 41.0409375 94.566875 41.0409375 94.125 40.0625 C92.60901352 37.28319146 90.94132727 36.92884019 88 36 C88 35.01 88 34.02 88 33 C86.7934375 32.9071875 86.7934375 32.9071875 85.5625 32.8125 C79.86651211 31.51341504 75.22286869 28.39575476 70.3125 25.3125 C67.63071357 23.790405 64.93844219 22.91418202 62 22 C61.34 21.67 60.68 21.34 60 21 C60 20.34 60 19.68 60 19 C59.29875 19.495 58.5975 19.99 57.875 20.5 C54.56074794 22.22917499 52.68722891 22.4809429 49 22 C47.3125 20.5625 47.3125 20.5625 46 19 C45.01 18.67 44.02 18.34 43 18 C40.8480563 14.77208445 40.79913557 13.71599191 41 10 C39.02 10 37.04 10 35 10 C35 9.34 35 8.68 35 8 C34.01 7.67 33.02 7.34 32 7 C31.67 6.01 31.34 5.02 31 4 C20.6740221 2.71237806 10.3906455 1.6257441 0 1 C0 0.67 0 0.34 0 0 Z " fill="#1E1E1E" transform="translate(366,0)"/>
<path d="M0 0 C68.97 0 137.94 0 209 0 C206.47732009 1.68178661 204.18908177 2.90106742 201.4375 4.125 C200.25994141 4.65480469 200.25994141 4.65480469 199.05859375 5.1953125 C197 6 197 6 195 6 C195 6.66 195 7.32 195 8 C189.59482904 9.68612634 184.16740991 11.26150114 178.6875 12.6875 C177.72199219 12.93886719 176.75648438 13.19023437 175.76171875 13.44921875 C173.09107573 13.98183638 170.71413115 14.10381922 168 14 C168 14.66 168 15.32 168 16 C166.02 16.495 166.02 16.495 164 17 C164 17.66 164 18.32 164 19 C163.34 19 162.68 19 162 19 C162 19.66 162 20.32 162 21 C161.11957031 21.32613281 160.23914063 21.65226562 159.33203125 21.98828125 C157.58986328 22.64376953 157.58986328 22.64376953 155.8125 23.3125 C154.66394531 23.74175781 153.51539063 24.17101562 152.33203125 24.61328125 C149.33012449 25.86260939 146.76572544 27.31159478 144 29 C142.34795544 29.70211894 140.68076231 30.36971413 139 31 C134.03568592 32.94895294 130.2075916 34.76295495 126.4375 38.625 C124.11637182 40.88661207 123.13888138 41.6512354 120 42 C120 42.99 120 43.98 120 45 C111.59577465 49.7971831 111.59577465 49.7971831 108.0625 51 C105.20783591 52.38407956 105.08381436 54.10982838 104 57 C101.875 58.3125 101.875 58.3125 100 59 C100 59.66 100 60.32 100 61 C98.125 63.125 98.125 63.125 96 65 C95.34 65 94.68 65 94 65 C94 65.66 94 66.32 94 67 C91.25896334 69.42231147 88.4904261 71.64914485 85.515625 73.77734375 C81.80118353 77.05920275 80.02139535 81.07230034 77.74609375 85.41796875 C76 88 76 88 73.859375 88.7421875 C73.24578125 88.82726562 72.6321875 88.91234375 72 89 C70.75825204 90.9001177 70.75825204 90.9001177 70 93 C69 95 69 95 66.125 96.375 C63.0427468 97.97777166 61.79742705 99.1041453 60 102 C60.763125 101.938125 61.52625 101.87625 62.3125 101.8125 C65 102 65 102 66.8125 103 C68.73618446 106.23988962 68.18282384 109.2825819 68 113 C66.68 113.33 65.36 113.66 64 114 C64 114.66 64 115.32 64 116 C58.94200763 119.91658701 53.73164636 122.16212033 47.5625 123.6875 C44.51160127 124.47030911 44.51160127 124.47030911 42 126 C40.54770569 128.92177554 39.97569618 131.41285128 39.52734375 134.63671875 C39.35332031 135.41660156 39.17929687 136.19648438 39 137 C38.01 137.33 37.02 137.66 36 138 C34.87483915 139.83284443 34.87483915 139.83284443 34 142 C32.69339246 144.87453658 31.44644682 146.96129432 29 149 C28.34 149 27.68 149 27 149 C26.97421875 149.82242188 26.9484375 150.64484375 26.921875 151.4921875 C26.57996269 158.22164346 25.75436376 163.73772901 22.9375 169.87890625 C22.0394704 171.91069821 21.47149074 173.83408942 21 176 C20.34 176 19.68 176 19 176 C18.690625 176.61875 18.38125 177.2375 18.0625 177.875 C17.375 179.25 16.6875 180.625 16 182 C15.34 182 14.68 182 14 182 C12.03723922 186.12964867 11.74837183 189.57922262 11.625 194.125 C11.26489566 201.04851557 9.81913165 206.69301244 7 213 C6.34 213 5.68 213 5 213 C3.95117609 216.56071312 3.69613047 220.05527897 3.4375 223.75 C3.35371094 224.92046875 3.26992188 226.0909375 3.18359375 227.296875 C3.12300781 228.18890625 3.06242188 229.0809375 3 230 C2.34 230 1.68 230 1 230 C1 231.65 1 233.3 1 235 C0.67 235 0.34 235 0 235 C0 157.45 0 79.9 0 0 Z " fill="#1E1E1E" transform="translate(0,0)"/>
<path d="M0 0 C-0.33 0.99 -0.66 1.98 -1 3 C-7.27 3 -13.54 3 -20 3 C-19.67 2.34 -19.34 1.68 -19 1 C-16.015625 0.5859375 -16.015625 0.5859375 -12.25 0.375 C-11.01765625 0.30023437 -9.7853125 0.22546875 -8.515625 0.1484375 C-5.66985213 0.02828265 -2.84732503 -0.03260296 0 0 Z " fill="#242424" transform="translate(339,576)"/>
<path d="M0 0 C0.33 1.98 0.66 3.96 1 6 C0.01 6.495 0.01 6.495 -1 7 C-1.65213292 9.02463255 -1.65213292 9.02463255 -2 11 C-4.24197388 9.22510401 -4.94326323 8.37824511 -5.375 5.5 C-5 3 -5 3 -3.625 1.1875 C-2 0 -2 0 0 0 Z " fill="#EDEDED" transform="translate(101,412)"/>
<path d="M0 0 C0.33 1.32 0.66 2.64 1 4 C-0.65 5.32 -2.3 6.64 -4 8 C-4.99 7.01 -5.98 6.02 -7 5 C-4.69 3.35 -2.38 1.7 0 0 Z " fill="#E9E9E9" transform="translate(264,412)"/>
<path d="M0 0 C-4.625 4.875 -4.625 4.875 -8 6 C-8 3 -8 3 -7 1 C-4.01793274 -0.8886426 -3.49368922 -1.16456307 0 0 Z " fill="#E5E5E5" transform="translate(454,370)"/>
<path d="M0 0 C2.31 0.66 4.62 1.32 7 2 C7 3.32 7 4.64 7 6 C7.66 6.33 8.32 6.66 9 7 C6 7 6 7 4.39453125 5.46875 C3.87246094 4.8190625 3.35039062 4.169375 2.8125 3.5 C2.28269531 2.8503125 1.75289062 2.200625 1.20703125 1.53125 C0.80871094 1.0259375 0.41039062 0.520625 0 0 Z " fill="#F3F3F3" transform="translate(148,358)"/>
<path d="M0 0 C3.24299151 2.38957269 5.50902342 4.2047869 7 8 C6.01 8.495 6.01 8.495 5 9 C1.7457985 6.16569547 0.4793247 4.31392226 0 0 Z " fill="#DDDDDD" transform="translate(363,420)"/>
<path d="M0 0 C0.99 0.99 1.98 1.98 3 3 C1.71937515 4.7074998 0.38232443 6.37373596 -1 8 C-1.66 8 -2.32 8 -3 8 C-1.125 2.25 -1.125 2.25 0 0 Z " fill="#0B0B0B" transform="translate(146,202)"/>
<path d="M0 0 C2.31 0.33 4.62 0.66 7 1 C4.87219421 3.34058637 2.88437779 4.70700306 0 6 C0 4.02 0 2.04 0 0 Z " fill="#131313" transform="translate(260,409)"/>
<path d="M0 0 C0.66 0.99 1.32 1.98 2 3 C1.3125 5.625 1.3125 5.625 0 8 C-0.99 8.33 -1.98 8.66 -3 9 C-2.5020163 5.26512223 -2.12508244 3.18762365 0 0 Z " fill="#E5E5E5" transform="translate(151,116)"/>
<path d="M0 0 C0.99 0.66 1.98 1.32 3 2 C2.67 3.65 2.34 5.3 2 7 C0.68 6.34 -0.64 5.68 -2 5 C-1.34 3.35 -0.68 1.7 0 0 Z " fill="#0E0E0E" transform="translate(147,437)"/>
<path d="M0 0 C2.31 0 4.62 0 7 0 C6.34 1.32 5.68 2.64 5 4 C2.525 3.01 2.525 3.01 0 2 C0 1.34 0 0.68 0 0 Z " fill="#1E1E1E" transform="translate(349,408)"/>
<path d="M0 0 C0.99 0.33 1.98 0.66 3 1 C2.360625 1.4125 1.72125 1.825 1.0625 2.25 C-1.20990931 4.17810487 -1.60196439 5.11424181 -2 8 C-3.32 7.67 -4.64 7.34 -6 7 C-4.02 4.69 -2.04 2.38 0 0 Z " fill="#DFDFDF" transform="translate(150,203)"/>
<path d="M0 0 C0.33 0.66 0.66 1.32 1 2 C-3.39453125 6.00390625 -3.39453125 6.00390625 -5 7 C-5.99 6.67 -6.98 6.34 -8 6 C-5.51047079 3.33264727 -3.36591866 1.44253657 0 0 Z " fill="#E6E6E6" transform="translate(409,123)"/>
<path d="M0 0 C2.97 1.98 2.97 1.98 6 4 C5.34 4.66 4.68 5.32 4 6 C3.01 5.34 2.02 4.68 1 4 C0.01 4 -0.98 4 -2 4 C-1.34 2.68 -0.68 1.36 0 0 Z " fill="#E8E8E8" transform="translate(155,453)"/>
<path d="M0 0 C1.32 1.32 2.64 2.64 4 4 C1.23735711 4.59732819 -1.16032769 5 -4 5 C-2.68 3.35 -1.36 1.7 0 0 Z " fill="#1C1C1C" transform="translate(140,494)"/>
</svg>
